<svg id="visual" viewBox="0 0 900 600" width="900" height="600" xmlns="http://www.w3.org/2000/svg" xmlns:xlink="http://www.w3.org/1999/xlink" version="1.1"><rect width="900" height="600" fill="#000000"></rect><g><g transform="translate(248 591)"><path d="M0 -13.1L11.4 -6.6L11.4 6.6L0 13.1L-11.4 6.6L-11.4 -6.6Z" fill="#ffffff"></path></g><g transform="translate(315 378)"><path d="M0 -3L2.6 -1.5L2.6 1.5L0 3L-2.6 1.5L-2.6 -1.5Z" fill="#ffffff"></path></g><g transform="translate(299 11)"><path d="M0 -4L3.5 -2L3.5 2L0 4L-3.5 2L-3.5 -2Z" fill="#ffffff"></path></g><g transform="translate(248 76)"><path d="M0 -3L2.6 -1.5L2.6 1.5L0 3L-2.6 1.5L-2.6 -1.5Z" fill="#ffffff"></path></g><g transform="translate(128 81)"><path d="M0 -11L9.5 -5.5L9.5 5.5L0 11L-9.5 5.5L-9.5 -5.5Z" fill="#ffffff"></path></g><g transform="translate(327 482)"><path d="M0 -5L4.3 -2.5L4.3 2.5L0 5L-4.3 2.5L-4.3 -2.5Z" fill="#ffffff"></path></g><g transform="translate(786 562)"><path d="M0 -2L1.7 -1L1.7 1L0 2L-1.7 1L-1.7 -1Z" fill="#ffffff"></path></g><g transform="translate(851 169)"><path d="M0 -1L0.9 -0.5L0.9 0.5L0 1L-0.9 0.5L-0.9 -0.5Z" fill="#ffffff"></path></g><g transform="translate(691 361)"><path d="M0 -2L1.7 -1L1.7 1L0 2L-1.7 1L-1.7 -1Z" fill="#ffffff"></path></g><g transform="translate(55 101)"><path d="M0 -7L6.1 -3.5L6.1 3.5L0 7L-6.1 3.5L-6.1 -3.5Z" fill="#ffffff"></path></g><g transform="translate(586 541)"><path d="M0 -7L6.1 -3.5L6.1 3.5L0 7L-6.1 3.5L-6.1 -3.5Z" fill="#ffffff"></path></g><g transform="translate(107 565)"><path d="M0 -12L10.4 -6L10.4 6L0 12L-10.4 6L-10.4 -6Z" fill="#ffffff"></path></g><g transform="translate(842 144)"><path d="M0 -2L1.7 -1L1.7 1L0 2L-1.7 1L-1.7 -1Z" fill="#ffffff"></path></g><g transform="translate(329 121)"><path d="M0 -5L4.3 -2.5L4.3 2.5L0 5L-4.3 2.5L-4.3 -2.5Z" fill="#ffffff"></path></g><g transform="translate(175 529)"><path d="M0 -6L5.2 -3L5.2 3L0 6L-5.2 3L-5.2 -3Z" fill="#ffffff"></path></g><g transform="translate(525 61)"><path d="M0 -1L0.9 -0.5L0.9 0.5L0 1L-0.9 0.5L-0.9 -0.5Z" fill="#ffffff"></path></g><g transform="translate(433 396)"><path d="M0 -8L6.9 -4L6.9 4L0 8L-6.9 4L-6.9 -4Z" fill="#ffffff"></path></g><g transform="translate(364 58)"><path d="M0 -1L0.9 -0.5L0.9 0.5L0 1L-0.9 0.5L-0.9 -0.5Z" fill="#ffffff"></path></g><g transform="translate(895 168)"><path d="M0 -3L2.6 -1.5L2.6 1.5L0 3L-2.6 1.5L-2.6 -1.5Z" fill="#ffffff"></path></g><g transform="translate(736 188)"><path d="M0 -11L9.5 -5.5L9.5 5.5L0 11L-9.5 5.5L-9.5 -5.5Z" fill="#ffffff"></path></g><g transform="translate(227 254)"><path d="M0 -6L5.2 -3L5.2 3L0 6L-5.2 3L-5.2 -3Z" fill="#ffffff"></path></g><g transform="translate(699 40)"><path d="M0 -7L6.1 -3.5L6.1 3.5L0 7L-6.1 3.5L-6.1 -3.5Z" fill="#ffffff"></path></g><g transform="translate(544 545)"><path d="M0 -8L6.9 -4L6.9 4L0 8L-6.9 4L-6.9 -4Z" fill="#ffffff"></path></g><g transform="translate(549 220)"><path d="M0 -1L0.9 -0.5L0.9 0.5L0 1L-0.9 0.5L-0.9 -0.5Z" fill="#ffffff"></path></g><g transform="translate(820 121)"><path d="M0 -6L5.2 -3L5.2 3L0 6L-5.2 3L-5.2 -3Z" fill="#ffffff"></path></g><g transform="translate(266 129)"><path d="M0 -4L3.5 -2L3.5 2L0 4L-3.5 2L-3.5 -2Z" fill="#ffffff"></path></g><g transform="translate(329 208)"><path d="M0 -6L5.2 -3L5.2 3L0 6L-5.2 3L-5.2 -3Z" fill="#ffffff"></path></g><g transform="translate(840 30)"><path d="M0 -12L10.4 -6L10.4 6L0 12L-10.4 6L-10.4 -6Z" fill="#ffffff"></path></g><g transform="translate(11 147)"><path d="M0 -8L6.9 -4L6.9 4L0 8L-6.9 4L-6.9 -4Z" fill="#ffffff"></path></g><g transform="translate(370 276)"><path d="M0 -9L7.8 -4.5L7.8 4.5L0 9L-7.8 4.5L-7.8 -4.5Z" fill="#ffffff"></path></g><g transform="translate(696 126)"><path d="M0 -5L4.3 -2.5L4.3 2.5L0 5L-4.3 2.5L-4.3 -2.5Z" fill="#ffffff"></path></g><g transform="translate(448 225)"><path d="M0 -4L3.5 -2L3.5 2L0 4L-3.5 2L-3.5 -2Z" fill="#ffffff"></path></g><g transform="translate(679 221)"><path d="M0 -11L9.5 -5.5L9.5 5.5L0 11L-9.5 5.5L-9.5 -5.5Z" fill="#ffffff"></path></g><g transform="translate(459 160)"><path d="M0 -3L2.6 -1.5L2.6 1.5L0 3L-2.6 1.5L-2.6 -1.5Z" fill="#ffffff"></path></g><g transform="translate(818 327)"><path d="M0 -10L8.7 -5L8.7 5L0 10L-8.7 5L-8.7 -5Z" fill="#ffffff"></path></g><g transform="translate(837 528)"><path d="M0 -6L5.2 -3L5.2 3L0 6L-5.2 3L-5.2 -3Z" fill="#ffffff"></path></g><g transform="translate(502 179)"><path d="M0 -5L4.3 -2.5L4.3 2.5L0 5L-4.3 2.5L-4.3 -2.5Z" fill="#ffffff"></path></g><g transform="translate(751 467)"><path d="M0 -3L2.6 -1.5L2.6 1.5L0 3L-2.6 1.5L-2.6 -1.5Z" fill="#ffffff"></path></g><g transform="translate(477 238)"><path d="M0 -7L6.1 -3.5L6.1 3.5L0 7L-6.1 3.5L-6.1 -3.5Z" fill="#ffffff"></path></g><g transform="translate(166 59)"><path d="M0 -3L2.6 -1.5L2.6 1.5L0 3L-2.6 1.5L-2.6 -1.5Z" fill="#ffffff"></path></g><g transform="translate(493 86)"><path d="M0 -12L10.4 -6L10.4 6L0 12L-10.4 6L-10.4 -6Z" fill="#ffffff"></path></g><g transform="translate(372 308)"><path d="M0 -7L6.1 -3.5L6.1 3.5L0 7L-6.1 3.5L-6.1 -3.5Z" fill="#ffffff"></path></g><g transform="translate(687 325)"><path d="M0 -10L8.7 -5L8.7 5L0 10L-8.7 5L-8.7 -5Z" fill="#ffffff"></path></g><g transform="translate(859 492)"><path d="M0 -10L8.7 -5L8.7 5L0 10L-8.7 5L-8.7 -5Z" fill="#ffffff"></path></g><g transform="translate(839 387)"><path d="M0 -2L1.7 -1L1.7 1L0 2L-1.7 1L-1.7 -1Z" fill="#ffffff"></path></g><g transform="translate(299 481)"><path d="M0 -1L0.9 -0.5L0.9 0.5L0 1L-0.9 0.5L-0.9 -0.5Z" fill="#ffffff"></path></g><g transform="translate(33 526)"><path d="M0 -10L8.7 -5L8.7 5L0 10L-8.7 5L-8.7 -5Z" fill="#ffffff"></path></g><g transform="translate(647 191)"><path d="M0 -4L3.5 -2L3.5 2L0 4L-3.5 2L-3.5 -2Z" fill="#ffffff"></path></g><g transform="translate(616 71)"><path d="M0 -1L0.9 -0.5L0.9 0.5L0 1L-0.9 0.5L-0.9 -0.5Z" fill="#ffffff"></path></g><g transform="translate(141 439)"><path d="M0 -8L6.9 -4L6.9 4L0 8L-6.9 4L-6.9 -4Z" fill="#ffffff"></path></g><g transform="translate(675 570)"><path d="M0 -3L2.6 -1.5L2.6 1.5L0 3L-2.6 1.5L-2.6 -1.5Z" fill="#ffffff"></path></g><g transform="translate(643 451)"><path d="M0 -3L2.6 -1.5L2.6 1.5L0 3L-2.6 1.5L-2.6 -1.5Z" fill="#ffffff"></path></g><g transform="translate(377 547)"><path d="M0 -9L7.8 -4.5L7.8 4.5L0 9L-7.8 4.5L-7.8 -4.5Z" fill="#ffffff"></path></g><g transform="translate(205 566)"><path d="M0 -5L4.3 -2.5L4.3 2.5L0 5L-4.3 2.5L-4.3 -2.5Z" fill="#ffffff"></path></g><g transform="translate(632 427)"><path d="M0 -2L1.7 -1L1.7 1L0 2L-1.7 1L-1.7 -1Z" fill="#ffffff"></path></g><g transform="translate(44 5)"><path d="M0 -9L7.8 -4.5L7.8 4.5L0 9L-7.8 4.5L-7.8 -4.5Z" fill="#ffffff"></path></g><g transform="translate(774 88)"><path d="M0 -4L3.5 -2L3.5 2L0 4L-3.5 2L-3.5 -2Z" fill="#ffffff"></path></g><g transform="translate(261 4)"><path d="M0 -6L5.2 -3L5.2 3L0 6L-5.2 3L-5.2 -3Z" fill="#ffffff"></path></g><g transform="translate(465 504)"><path d="M0 -6L5.2 -3L5.2 3L0 6L-5.2 3L-5.2 -3Z" fill="#ffffff"></path></g><g transform="translate(135 499)"><path d="M0 -12L10.4 -6L10.4 6L0 12L-10.4 6L-10.4 -6Z" fill="#ffffff"></path></g><g transform="translate(632 295)"><path d="M0 -4L3.5 -2L3.5 2L0 4L-3.5 2L-3.5 -2Z" fill="#ffffff"></path></g><g transform="translate(181 96)"><path d="M0 -4L3.5 -2L3.5 2L0 4L-3.5 2L-3.5 -2Z" fill="#ffffff"></path></g><g transform="translate(102 397)"><path d="M0 -2L1.7 -1L1.7 1L0 2L-1.7 1L-1.7 -1Z" fill="#ffffff"></path></g><g transform="translate(57 175)"><path d="M0 -12L10.4 -6L10.4 6L0 12L-10.4 6L-10.4 -6Z" fill="#ffffff"></path></g><g transform="translate(250 535)"><path d="M0 -2L1.7 -1L1.7 1L0 2L-1.7 1L-1.7 -1Z" fill="#ffffff"></path></g><g transform="translate(154 29)"><path d="M0 -6L5.2 -3L5.2 3L0 6L-5.2 3L-5.2 -3Z" fill="#ffffff"></path></g><g transform="translate(462 105)"><path d="M0 -9L7.8 -4.5L7.8 4.5L0 9L-7.8 4.5L-7.8 -4.5Z" fill="#ffffff"></path></g><g transform="translate(175 171)"><path d="M0 -10L8.7 -5L8.7 5L0 10L-8.7 5L-8.7 -5Z" fill="#ffffff"></path></g><g transform="translate(774 24)"><path d="M0 -12L10.4 -6L10.4 6L0 12L-10.4 6L-10.4 -6Z" fill="#ffffff"></path></g><g transform="translate(59 62)"><path d="M0 -4L3.5 -2L3.5 2L0 4L-3.5 2L-3.5 -2Z" fill="#ffffff"></path></g><g transform="translate(214 443)"><path d="M0 -9L7.8 -4.5L7.8 4.5L0 9L-7.8 4.5L-7.8 -4.5Z" fill="#ffffff"></path></g><g transform="translate(369 480)"><path d="M0 -8L6.9 -4L6.9 4L0 8L-6.9 4L-6.9 -4Z" fill="#ffffff"></path></g><g transform="translate(453 592)"><path d="M0 -1L0.9 -0.5L0.9 0.5L0 1L-0.9 0.5L-0.9 -0.5Z" fill="#ffffff"></path></g><g transform="translate(437 260)"><path d="M0 -12L10.4 -6L10.4 6L0 12L-10.4 6L-10.4 -6Z" fill="#ffffff"></path></g><g transform="translate(39 202)"><path d="M0 -6L5.2 -3L5.2 3L0 6L-5.2 3L-5.2 -3Z" fill="#ffffff"></path></g><g transform="translate(2 359)"><path d="M0 -7L6.1 -3.5L6.1 3.5L0 7L-6.1 3.5L-6.1 -3.5Z" fill="#ffffff"></path></g><g transform="translate(393 199)"><path d="M0 -4L3.5 -2L3.5 2L0 4L-3.5 2L-3.5 -2Z" fill="#ffffff"></path></g><g transform="translate(8 20)"><path d="M0 -12L10.4 -6L10.4 6L0 12L-10.4 6L-10.4 -6Z" fill="#ffffff"></path></g><g transform="translate(160 336)"><path d="M0 -1L0.9 -0.5L0.9 0.5L0 1L-0.9 0.5L-0.9 -0.5Z" fill="#ffffff"></path></g><g transform="translate(861 256)"><path d="M0 -5L4.3 -2.5L4.3 2.5L0 5L-4.3 2.5L-4.3 -2.5Z" fill="#ffffff"></path></g><g transform="translate(147 108)"><path d="M0 -5L4.3 -2.5L4.3 2.5L0 5L-4.3 2.5L-4.3 -2.5Z" fill="#ffffff"></path></g><g transform="translate(755 500)"><path d="M0 -9L7.8 -4.5L7.8 4.5L0 9L-7.8 4.5L-7.8 -4.5Z" fill="#ffffff"></path></g><g transform="translate(351 419)"><path d="M0 -10L8.7 -5L8.7 5L0 10L-8.7 5L-8.7 -5Z" fill="#ffffff"></path></g><g transform="translate(725 103)"><path d="M0 -3L2.6 -1.5L2.6 1.5L0 3L-2.6 1.5L-2.6 -1.5Z" fill="#ffffff"></path></g><g transform="translate(145 533)"><path d="M0 -1L0.9 -0.5L0.9 0.5L0 1L-0.9 0.5L-0.9 -0.5Z" fill="#ffffff"></path></g><g transform="translate(204 52)"><path d="M0 -2L1.7 -1L1.7 1L0 2L-1.7 1L-1.7 -1Z" fill="#ffffff"></path></g><g transform="translate(134 171)"><path d="M0 -3L2.6 -1.5L2.6 1.5L0 3L-2.6 1.5L-2.6 -1.5Z" fill="#ffffff"></path></g><g transform="translate(541 384)"><path d="M0 -12L10.4 -6L10.4 6L0 12L-10.4 6L-10.4 -6Z" fill="#ffffff"></path></g><g transform="translate(637 115)"><path d="M0 -2L1.7 -1L1.7 1L0 2L-1.7 1L-1.7 -1Z" fill="#ffffff"></path></g><g transform="translate(762 265)"><path d="M0 -10L8.7 -5L8.7 5L0 10L-8.7 5L-8.7 -5Z" fill="#ffffff"></path></g><g transform="translate(347 376)"><path d="M0 -7L6.1 -3.5L6.1 3.5L0 7L-6.1 3.5L-6.1 -3.5Z" fill="#ffffff"></path></g><g transform="translate(506 283)"><path d="M0 -4L3.5 -2L3.5 2L0 4L-3.5 2L-3.5 -2Z" fill="#ffffff"></path></g><g transform="translate(650 377)"><path d="M0 -10L8.7 -5L8.7 5L0 10L-8.7 5L-8.7 -5Z" fill="#ffffff"></path></g><g transform="translate(681 72)"><path d="M0 -1L0.9 -0.5L0.9 0.5L0 1L-0.9 0.5L-0.9 -0.5Z" fill="#ffffff"></path></g><g transform="translate(443 335)"><path d="M0 -4L3.5 -2L3.5 2L0 4L-3.5 2L-3.5 -2Z" fill="#ffffff"></path></g><g transform="translate(437 183)"><path d="M0 -5L4.3 -2.5L4.3 2.5L0 5L-4.3 2.5L-4.3 -2.5Z" fill="#ffffff"></path></g><g transform="translate(790 177)"><path d="M0 -8L6.9 -4L6.9 4L0 8L-6.9 4L-6.9 -4Z" fill="#ffffff"></path></g><g transform="translate(263 433)"><path d="M0 -2L1.7 -1L1.7 1L0 2L-1.7 1L-1.7 -1Z" fill="#ffffff"></path></g><g transform="translate(841 231)"><path d="M0 -10L8.7 -5L8.7 5L0 10L-8.7 5L-8.7 -5Z" fill="#ffffff"></path></g><g transform="translate(515 110)"><path d="M0 -5L4.3 -2.5L4.3 2.5L0 5L-4.3 2.5L-4.3 -2.5Z" fill="#ffffff"></path></g><g transform="translate(894 250)"><path d="M0 -7L6.1 -3.5L6.1 3.5L0 7L-6.1 3.5L-6.1 -3.5Z" fill="#ffffff"></path></g><g transform="translate(500 582)"><path d="M0 -2L1.7 -1L1.7 1L0 2L-1.7 1L-1.7 -1Z" fill="#ffffff"></path></g><g transform="translate(82 520)"><path d="M0 -1L0.9 -0.5L0.9 0.5L0 1L-0.9 0.5L-0.9 -0.5Z" fill="#ffffff"></path></g><g transform="translate(142 596)"><path d="M0 -10L8.7 -5L8.7 5L0 10L-8.7 5L-8.7 -5Z" fill="#ffffff"></path></g><g transform="translate(879 278)"><path d="M0 -1L0.9 -0.5L0.9 0.5L0 1L-0.9 0.5L-0.9 -0.5Z" fill="#ffffff"></path></g><g transform="translate(519 463)"><path d="M0 -1L0.9 -0.5L0.9 0.5L0 1L-0.9 0.5L-0.9 -0.5Z" fill="#ffffff"></path></g><g transform="translate(342 256)"><path d="M0 -4L3.5 -2L3.5 2L0 4L-3.5 2L-3.5 -2Z" fill="#ffffff"></path></g><g transform="translate(408 24)"><path d="M0 -1L0.9 -0.5L0.9 0.5L0 1L-0.9 0.5L-0.9 -0.5Z" fill="#ffffff"></path></g><g transform="translate(162 296)"><path d="M0 -10L8.7 -5L8.7 5L0 10L-8.7 5L-8.7 -5Z" fill="#ffffff"></path></g><g transform="translate(754 167)"><path d="M0 -3L2.6 -1.5L2.6 1.5L0 3L-2.6 1.5L-2.6 -1.5Z" fill="#ffffff"></path></g><g transform="translate(146 207)"><path d="M0 -2L1.7 -1L1.7 1L0 2L-1.7 1L-1.7 -1Z" fill="#ffffff"></path></g><g transform="translate(466 43)"><path d="M0 -3L2.6 -1.5L2.6 1.5L0 3L-2.6 1.5L-2.6 -1.5Z" fill="#ffffff"></path></g><g transform="translate(769 442)"><path d="M0 -1L0.9 -0.5L0.9 0.5L0 1L-0.9 0.5L-0.9 -0.5Z" fill="#ffffff"></path></g><g transform="translate(117 267)"><path d="M0 -7L6.1 -3.5L6.1 3.5L0 7L-6.1 3.5L-6.1 -3.5Z" fill="#ffffff"></path></g><g transform="translate(148 402)"><path d="M0 -11L9.5 -5.5L9.5 5.5L0 11L-9.5 5.5L-9.5 -5.5Z" fill="#ffffff"></path></g><g transform="translate(471 424)"><path d="M0 -11L9.5 -5.5L9.5 5.5L0 11L-9.5 5.5L-9.5 -5.5Z" fill="#ffffff"></path></g><g transform="translate(330 589)"><path d="M0 -9L7.8 -4.5L7.8 4.5L0 9L-7.8 4.5L-7.8 -4.5Z" fill="#ffffff"></path></g><g transform="translate(292 586)"><path d="M0 -10L8.7 -5L8.7 5L0 10L-8.7 5L-8.7 -5Z" fill="#ffffff"></path></g><g transform="translate(745 315)"><path d="M0 -3L2.6 -1.5L2.6 1.5L0 3L-2.6 1.5L-2.6 -1.5Z" fill="#ffffff"></path></g><g transform="translate(652 585)"><path d="M0 -2L1.7 -1L1.7 1L0 2L-1.7 1L-1.7 -1Z" fill="#ffffff"></path></g><g transform="translate(140 136)"><path d="M0 -3L2.6 -1.5L2.6 1.5L0 3L-2.6 1.5L-2.6 -1.5Z" fill="#ffffff"></path></g><g transform="translate(265 274)"><path d="M0 -4L3.5 -2L3.5 2L0 4L-3.5 2L-3.5 -2Z" fill="#ffffff"></path></g><g transform="translate(582 153)"><path d="M0 -5L4.3 -2.5L4.3 2.5L0 5L-4.3 2.5L-4.3 -2.5Z" fill="#ffffff"></path></g><g transform="translate(718 226)"><path d="M0 -12L10.4 -6L10.4 6L0 12L-10.4 6L-10.4 -6Z" fill="#ffffff"></path></g><g transform="translate(847 461)"><path d="M0 -12L10.4 -6L10.4 6L0 12L-10.4 6L-10.4 -6Z" fill="#ffffff"></path></g><g transform="translate(207 497)"><path d="M0 -5L4.3 -2.5L4.3 2.5L0 5L-4.3 2.5L-4.3 -2.5Z" fill="#ffffff"></path></g><g transform="translate(65 222)"><path d="M0 -1L0.9 -0.5L0.9 0.5L0 1L-0.9 0.5L-0.9 -0.5Z" fill="#ffffff"></path></g><g transform="translate(496 346)"><path d="M0 -10L8.7 -5L8.7 5L0 10L-8.7 5L-8.7 -5Z" fill="#ffffff"></path></g><g transform="translate(188 263)"><path d="M0 -8L6.9 -4L6.9 4L0 8L-6.9 4L-6.9 -4Z" fill="#ffffff"></path></g><g transform="translate(585 453)"><path d="M0 -1L0.9 -0.5L0.9 0.5L0 1L-0.9 0.5L-0.9 -0.5Z" fill="#ffffff"></path></g><g transform="translate(174 145)"><path d="M0 -1L0.9 -0.5L0.9 0.5L0 1L-0.9 0.5L-0.9 -0.5Z" fill="#ffffff"></path></g><g transform="translate(893 583)"><path d="M0 -11L9.5 -5.5L9.5 5.5L0 11L-9.5 5.5L-9.5 -5.5Z" fill="#ffffff"></path></g><g transform="translate(122 466)"><path d="M0 -3L2.6 -1.5L2.6 1.5L0 3L-2.6 1.5L-2.6 -1.5Z" fill="#ffffff"></path></g><g transform="translate(359 197)"><path d="M0 -12L10.4 -6L10.4 6L0 12L-10.4 6L-10.4 -6Z" fill="#ffffff"></path></g><g transform="translate(737 555)"><path d="M0 -11L9.5 -5.5L9.5 5.5L0 11L-9.5 5.5L-9.5 -5.5Z" fill="#ffffff"></path></g><g transform="translate(897 223)"><path d="M0 -1L0.9 -0.5L0.9 0.5L0 1L-0.9 0.5L-0.9 -0.5Z" fill="#ffffff"></path></g><g transform="translate(606 306)"><path d="M0 -7L6.1 -3.5L6.1 3.5L0 7L-6.1 3.5L-6.1 -3.5Z" fill="#ffffff"></path></g><g transform="translate(80 463)"><path d="M0 -10L8.7 -5L8.7 5L0 10L-8.7 5L-8.7 -5Z" fill="#ffffff"></path></g><g transform="translate(533 131)"><path d="M0 -8L6.9 -4L6.9 4L0 8L-6.9 4L-6.9 -4Z" fill="#ffffff"></path></g><g transform="translate(423 502)"><path d="M0 -2L1.7 -1L1.7 1L0 2L-1.7 1L-1.7 -1Z" fill="#ffffff"></path></g><g transform="translate(31 349)"><path d="M0 -8L6.9 -4L6.9 4L0 8L-6.9 4L-6.9 -4Z" fill="#ffffff"></path></g><g transform="translate(885 364)"><path d="M0 -5L4.3 -2.5L4.3 2.5L0 5L-4.3 2.5L-4.3 -2.5Z" fill="#ffffff"></path></g><g transform="translate(578 111)"><path d="M0 -9L7.8 -4.5L7.8 4.5L0 9L-7.8 4.5L-7.8 -4.5Z" fill="#ffffff"></path></g><g transform="translate(115 26)"><path d="M0 -9L7.8 -4.5L7.8 4.5L0 9L-7.8 4.5L-7.8 -4.5Z" fill="#ffffff"></path></g><g transform="translate(856 84)"><path d="M0 -1L0.9 -0.5L0.9 0.5L0 1L-0.9 0.5L-0.9 -0.5Z" fill="#ffffff"></path></g><g transform="translate(731 584)"><path d="M0 -3L2.6 -1.5L2.6 1.5L0 3L-2.6 1.5L-2.6 -1.5Z" fill="#ffffff"></path></g><g transform="translate(209 234)"><path d="M0 -10L8.7 -5L8.7 5L0 10L-8.7 5L-8.7 -5Z" fill="#ffffff"></path></g><g transform="translate(767 587)"><path d="M0 -8L6.9 -4L6.9 4L0 8L-6.9 4L-6.9 -4Z" fill="#ffffff"></path></g><g transform="translate(695 266)"><path d="M0 -8L6.9 -4L6.9 4L0 8L-6.9 4L-6.9 -4Z" fill="#ffffff"></path></g><g transform="translate(754 213)"><path d="M0 -9L7.8 -4.5L7.8 4.5L0 9L-7.8 4.5L-7.8 -4.5Z" fill="#ffffff"></path></g><g transform="translate(301 436)"><path d="M0 -11L9.5 -5.5L9.5 5.5L0 11L-9.5 5.5L-9.5 -5.5Z" fill="#ffffff"></path></g><g transform="translate(288 194)"><path d="M0 -6L5.2 -3L5.2 3L0 6L-5.2 3L-5.2 -3Z" fill="#ffffff"></path></g><g transform="translate(883 480)"><path d="M0 -12L10.4 -6L10.4 6L0 12L-10.4 6L-10.4 -6Z" fill="#ffffff"></path></g><g transform="translate(375 593)"><path d="M0 -6L5.2 -3L5.2 3L0 6L-5.2 3L-5.2 -3Z" fill="#ffffff"></path></g></g></svg>